# MagicaVoxel @ ephtracy

# material
mtllib tulip.mtl
usemtl palette

# normals
vn -1 0 0
vn 1 0 0
vn 0 0 1
vn 0 0 -1
vn 0 -1 0
vn 0 1 0

# texcoords
vt 0.0449219 0.5
vt 0.771484 0.5
vt 0.892578 0.5
vt 0.900391 0.5
vt 0.904297 0.5
vt 0.986328 0.5

# verts
v -4 3 -3
v -4 3 -4
v -4 4 -3
v -4 4 -4
v -4 5 -3
v -4 5 -4
v -4 9 -1
v -4 9 -6
v -4 11 -3
v -4 11 -4
v -4 12 -1
v -4 12 -3
v -4 12 -4
v -4 12 -6
v -3 2 -3
v -3 2 -4
v -3 3 -3
v -3 3 -4
v -3 8 -2
v -3 8 -5
v -3 9 -2
v -3 9 -5
v -2 0 -3
v -2 0 -4
v -2 2 -3
v -2 2 -4
v -2 4 -3
v -2 4 -4
v -2 8 -3
v -2 8 -4
v -1 11 -1
v -1 11 -2
v -1 11 -5
v -1 11 -6
v -1 12 -1
v -1 12 -2
v -1 12 -5
v -1 12 -6
v 0 5 -3
v 0 5 -4
v 0 6 -3
v 0 6 -4
v 0 10 -2
v 0 10 -5
v 0 11 -3
v 0 11 -4
v 0 12 -2
v 0 12 -3
v 0 12 -4
v 0 12 -5
v -3 4 -3
v -3 4 -4
v -3 5 -3
v -3 5 -4
v -3 10 -2
v -3 10 -5
v -3 11 -3
v -3 11 -4
v -3 12 -2
v -3 12 -3
v -3 12 -4
v -3 12 -5
v -2 11 -1
v -2 11 -2
v -2 11 -5
v -2 11 -6
v -2 12 -1
v -2 12 -2
v -2 12 -5
v -2 12 -6
v -1 0 -3
v -1 0 -4
v -1 3 -3
v -1 3 -4
v -1 5 -3
v -1 5 -4
v -1 8 -3
v -1 8 -4
v 0 3 -3
v 0 3 -4
v 0 4 -3
v 0 4 -4
v 0 8 -2
v 0 8 -5
v 0 9 -2
v 0 9 -5
v 1 4 -3
v 1 4 -4
v 1 5 -3
v 1 5 -4
v 1 6 -3
v 1 6 -4
v 1 9 -1
v 1 9 -6
v 1 11 -3
v 1 11 -4
v 1 12 -1
v 1 12 -3
v 1 12 -4
v 1 12 -6
v -4 9 -1
v -4 12 -1
v -2 11 -1
v -2 12 -1
v -1 11 -1
v -1 12 -1
v 1 9 -1
v 1 12 -1
v -3 8 -2
v -3 9 -2
v 0 8 -2
v 0 9 -2
v -4 3 -3
v -4 4 -3
v -4 5 -3
v -3 2 -3
v -3 3 -3
v -3 4 -3
v -3 5 -3
v -2 0 -3
v -2 2 -3
v -2 3 -3
v -2 4 -3
v -2 8 -3
v -1 0 -3
v -1 3 -3
v -1 4 -3
v -1 5 -3
v -1 8 -3
v 0 3 -3
v 0 4 -3
v 0 5 -3
v 0 6 -3
v 1 4 -3
v 1 5 -3
v 1 6 -3
v -4 11 -4
v -4 12 -4
v -3 11 -4
v -3 12 -4
v 0 11 -4
v 0 12 -4
v 1 11 -4
v 1 12 -4
v -3 10 -5
v -3 12 -5
v -2 11 -5
v -2 12 -5
v -1 11 -5
v -1 12 -5
v 0 10 -5
v 0 12 -5
v -3 10 -2
v -3 12 -2
v -2 11 -2
v -2 12 -2
v -1 11 -2
v -1 12 -2
v 0 10 -2
v 0 12 -2
v -4 11 -3
v -4 12 -3
v -3 11 -3
v -3 12 -3
v 0 11 -3
v 0 12 -3
v 1 11 -3
v 1 12 -3
v -4 3 -4
v -4 4 -4
v -4 5 -4
v -3 2 -4
v -3 3 -4
v -3 4 -4
v -3 5 -4
v -2 0 -4
v -2 2 -4
v -2 3 -4
v -2 4 -4
v -2 8 -4
v -1 0 -4
v -1 3 -4
v -1 4 -4
v -1 5 -4
v -1 8 -4
v 0 3 -4
v 0 4 -4
v 0 5 -4
v 0 6 -4
v 1 4 -4
v 1 5 -4
v 1 6 -4
v -3 8 -5
v -3 9 -5
v 0 8 -5
v 0 9 -5
v -4 9 -6
v -4 12 -6
v -2 11 -6
v -2 12 -6
v -1 11 -6
v -1 12 -6
v 1 9 -6
v 1 12 -6
v -2 0 -3
v -1 0 -3
v -2 0 -4
v -1 0 -4
v -3 2 -3
v -2 2 -3
v -3 2 -4
v -2 2 -4
v -4 3 -3
v -3 3 -3
v -1 3 -3
v 0 3 -3
v -4 3 -4
v -3 3 -4
v -1 3 -4
v 0 3 -4
v 0 4 -3
v 1 4 -3
v 0 4 -4
v 1 4 -4
v -3 8 -2
v 0 8 -2
v -2 8 -3
v -1 8 -3
v -2 8 -4
v -1 8 -4
v -3 8 -5
v 0 8 -5
v -4 9 -1
v 1 9 -1
v -3 9 -2
v 0 9 -2
v -3 9 -5
v 0 9 -5
v -4 9 -6
v 1 9 -6
v -3 4 -3
v -2 4 -3
v -3 4 -4
v -2 4 -4
v -4 5 -3
v -3 5 -3
v -1 5 -3
v 0 5 -3
v -4 5 -4
v -3 5 -4
v -1 5 -4
v 0 5 -4
v 0 6 -3
v 1 6 -3
v 0 6 -4
v 1 6 -4
v -3 10 -2
v 0 10 -2
v -3 10 -5
v 0 10 -5
v -2 11 -1
v -1 11 -1
v -2 11 -2
v -1 11 -2
v -4 11 -3
v -3 11 -3
v 0 11 -3
v 1 11 -3
v -4 11 -4
v -3 11 -4
v 0 11 -4
v 1 11 -4
v -2 11 -5
v -1 11 -5
v -2 11 -6
v -1 11 -6
v -4 12 -1
v -2 12 -1
v -1 12 -1
v 1 12 -1
v -3 12 -2
v -2 12 -2
v -1 12 -2
v 0 12 -2
v -4 12 -3
v -3 12 -3
v 0 12 -3
v 1 12 -3
v -4 12 -4
v -3 12 -4
v 0 12 -4
v 1 12 -4
v -3 12 -5
v -2 12 -5
v -1 12 -5
v 0 12 -5
v -4 12 -6
v -2 12 -6
v -1 12 -6
v 1 12 -6

# faces
f 3/3/1 2/3/1 1/3/1
f 4/3/1 2/3/1 3/3/1
f 5/4/1 4/4/1 3/4/1
f 6/4/1 4/4/1 5/4/1
f 9/1/1 8/1/1 7/1/1
f 10/1/1 8/1/1 9/1/1
f 11/1/1 9/1/1 7/1/1
f 12/1/1 9/1/1 11/1/1
f 13/1/1 8/1/1 10/1/1
f 14/1/1 8/1/1 13/1/1
f 17/3/1 16/3/1 15/3/1
f 18/3/1 16/3/1 17/3/1
f 21/1/1 20/1/1 19/1/1
f 22/1/1 20/1/1 21/1/1
f 25/5/1 24/5/1 23/5/1
f 26/5/1 24/5/1 25/5/1
f 29/5/1 28/5/1 27/5/1
f 30/5/1 28/5/1 29/5/1
f 35/1/1 32/1/1 31/1/1
f 36/1/1 32/1/1 35/1/1
f 37/1/1 34/1/1 33/1/1
f 38/1/1 34/1/1 37/1/1
f 41/4/1 40/4/1 39/4/1
f 42/4/1 40/4/1 41/4/1
f 45/1/1 44/1/1 43/1/1
f 46/1/1 44/1/1 45/1/1
f 47/1/1 45/1/1 43/1/1
f 48/1/1 45/1/1 47/1/1
f 49/1/1 44/1/1 46/1/1
f 50/1/1 44/1/1 49/1/1
f 51/4/2 52/4/2 53/4/2
f 53/4/2 52/4/2 54/4/2
f 55/1/2 56/1/2 57/1/2
f 57/1/2 56/1/2 58/1/2
f 55/1/2 57/1/2 59/1/2
f 59/1/2 57/1/2 60/1/2
f 58/1/2 56/1/2 61/1/2
f 61/1/2 56/1/2 62/1/2
f 63/1/2 64/1/2 67/1/2
f 67/1/2 64/1/2 68/1/2
f 65/1/2 66/1/2 69/1/2
f 69/1/2 66/1/2 70/1/2
f 71/5/2 72/5/2 73/5/2
f 73/5/2 72/5/2 74/5/2
f 75/5/2 76/5/2 77/5/2
f 77/5/2 76/5/2 78/5/2
f 79/2/2 80/2/2 81/2/2
f 81/2/2 80/2/2 82/2/2
f 83/1/2 84/1/2 85/1/2
f 85/1/2 84/1/2 86/1/2
f 87/2/2 88/2/2 89/2/2
f 89/2/2 88/2/2 90/2/2
f 89/4/2 90/4/2 91/4/2
f 91/4/2 90/4/2 92/4/2
f 93/1/2 94/1/2 95/1/2
f 95/1/2 94/1/2 96/1/2
f 93/1/2 95/1/2 97/1/2
f 97/1/2 95/1/2 98/1/2
f 96/1/2 94/1/2 99/1/2
f 99/1/2 94/1/2 100/1/2
f 103/1/3 102/1/3 101/1/3
f 104/1/3 102/1/3 103/1/3
f 105/1/3 103/1/3 101/1/3
f 107/1/3 105/1/3 101/1/3
f 107/1/3 106/1/3 105/1/3
f 108/1/3 106/1/3 107/1/3
f 111/1/3 110/1/3 109/1/3
f 112/1/3 110/1/3 111/1/3
f 117/3/3 114/3/3 113/3/3
f 118/4/3 115/4/3 114/4/3
f 118/3/3 114/3/3 117/3/3
f 119/4/3 115/4/3 118/4/3
f 121/3/3 117/3/3 116/3/3
f 122/4/3 118/4/3 117/4/3
f 122/3/3 117/3/3 121/3/3
f 123/4/3 118/4/3 122/4/3
f 125/5/3 123/5/3 122/5/3
f 125/5/3 124/5/3 123/5/3
f 125/5/3 122/5/3 121/5/3
f 125/5/3 121/5/3 120/5/3
f 126/5/3 124/5/3 125/5/3
f 127/5/3 124/5/3 126/5/3
f 128/5/3 124/5/3 127/5/3
f 129/5/3 124/5/3 128/5/3
f 130/2/3 127/2/3 126/2/3
f 131/4/3 128/4/3 127/4/3
f 131/2/3 127/2/3 130/2/3
f 132/4/3 128/4/3 131/4/3
f 134/2/3 132/2/3 131/2/3
f 135/4/3 133/4/3 132/4/3
f 135/2/3 132/2/3 134/2/3
f 136/4/3 133/4/3 135/4/3
f 139/1/3 138/1/3 137/1/3
f 140/1/3 138/1/3 139/1/3
f 143/1/3 142/1/3 141/1/3
f 144/1/3 142/1/3 143/1/3
f 147/1/3 146/1/3 145/1/3
f 148/1/3 146/1/3 147/1/3
f 149/1/3 147/1/3 145/1/3
f 151/1/3 149/1/3 145/1/3
f 151/1/3 150/1/3 149/1/3
f 152/1/3 150/1/3 151/1/3
f 153/1/4 154/1/4 155/1/4
f 155/1/4 154/1/4 156/1/4
f 153/1/4 155/1/4 157/1/4
f 153/1/4 157/1/4 159/1/4
f 157/1/4 158/1/4 159/1/4
f 159/1/4 158/1/4 160/1/4
f 161/1/4 162/1/4 163/1/4
f 163/1/4 162/1/4 164/1/4
f 165/1/4 166/1/4 167/1/4
f 167/1/4 166/1/4 168/1/4
f 169/3/4 170/3/4 173/3/4
f 170/4/4 171/4/4 174/4/4
f 173/3/4 170/3/4 174/3/4
f 174/4/4 171/4/4 175/4/4
f 172/3/4 173/3/4 177/3/4
f 173/4/4 174/4/4 178/4/4
f 177/3/4 173/3/4 178/3/4
f 178/4/4 174/4/4 179/4/4
f 178/5/4 179/5/4 181/5/4
f 179/5/4 180/5/4 181/5/4
f 177/5/4 178/5/4 181/5/4
f 176/5/4 177/5/4 181/5/4
f 181/5/4 180/5/4 182/5/4
f 182/5/4 180/5/4 183/5/4
f 183/5/4 180/5/4 184/5/4
f 184/5/4 180/5/4 185/5/4
f 182/2/4 183/2/4 186/2/4
f 183/4/4 184/4/4 187/4/4
f 186/2/4 183/2/4 187/2/4
f 187/4/4 184/4/4 188/4/4
f 187/2/4 188/2/4 190/2/4
f 188/4/4 189/4/4 191/4/4
f 190/2/4 188/2/4 191/2/4
f 191/4/4 189/4/4 192/4/4
f 193/1/4 194/1/4 195/1/4
f 195/1/4 194/1/4 196/1/4
f 197/1/4 198/1/4 199/1/4
f 199/1/4 198/1/4 200/1/4
f 197/1/4 199/1/4 201/1/4
f 197/1/4 201/1/4 203/1/4
f 201/1/4 202/1/4 203/1/4
f 203/1/4 202/1/4 204/1/4
f 207/5/5 206/5/5 205/5/5
f 208/5/5 206/5/5 207/5/5
f 211/3/5 210/3/5 209/3/5
f 212/3/5 210/3/5 211/3/5
f 217/3/5 214/3/5 213/3/5
f 218/3/5 214/3/5 217/3/5
f 219/2/5 216/2/5 215/2/5
f 220/2/5 216/2/5 219/2/5
f 223/2/5 222/2/5 221/2/5
f 224/2/5 222/2/5 223/2/5
f 227/1/5 226/1/5 225/1/5
f 228/1/5 226/1/5 227/1/5
f 229/1/5 227/1/5 225/1/5
f 230/1/5 226/1/5 228/1/5
f 231/1/5 229/1/5 225/1/5
f 231/1/5 230/1/5 229/1/5
f 232/1/5 226/1/5 230/1/5
f 232/1/5 230/1/5 231/1/5
f 235/1/5 234/1/5 233/1/5
f 236/1/5 234/1/5 235/1/5
f 237/1/5 235/1/5 233/1/5
f 238/1/5 234/1/5 236/1/5
f 239/1/5 237/1/5 233/1/5
f 239/1/5 238/1/5 237/1/5
f 240/1/5 234/1/5 238/1/5
f 240/1/5 238/1/5 239/1/5
f 241/4/6 242/4/6 243/4/6
f 243/4/6 242/4/6 244/4/6
f 245/4/6 246/4/6 249/4/6
f 249/4/6 246/4/6 250/4/6
f 247/4/6 248/4/6 251/4/6
f 251/4/6 248/4/6 252/4/6
f 253/4/6 254/4/6 255/4/6
f 255/4/6 254/4/6 256/4/6
f 257/6/6 258/6/6 259/6/6
f 259/6/6 258/6/6 260/6/6
f 261/1/6 262/1/6 263/1/6
f 263/1/6 262/1/6 264/1/6
f 265/1/6 266/1/6 269/1/6
f 269/1/6 266/1/6 270/1/6
f 267/1/6 268/1/6 271/1/6
f 271/1/6 268/1/6 272/1/6
f 273/1/6 274/1/6 275/1/6
f 275/1/6 274/1/6 276/1/6
f 277/1/6 278/1/6 281/1/6
f 281/1/6 278/1/6 282/1/6
f 279/1/6 280/1/6 283/1/6
f 283/1/6 280/1/6 284/1/6
f 277/1/6 281/1/6 285/1/6
f 285/1/6 281/1/6 286/1/6
f 284/1/6 280/1/6 287/1/6
f 287/1/6 280/1/6 288/1/6
f 289/1/6 290/1/6 293/1/6
f 291/1/6 292/1/6 296/1/6
f 293/1/6 294/1/6 297/1/6
f 289/1/6 293/1/6 297/1/6
f 297/1/6 294/1/6 298/1/6
f 295/1/6 296/1/6 299/1/6
f 296/1/6 292/1/6 300/1/6
f 299/1/6 296/1/6 300/1/6
